<svg width="65" height="20" viewBox="0 0 65 20" fill="none" xmlns="http://www.w3.org/2000/svg">
<path d="M13.5662 6.63594C14.2368 7.449 14.5726 8.58082 14.5726 10.0314V14.7509C14.5726 15.0726 14.3176 15.3325 14.002 15.3325H11.4868C11.1712 15.3325 10.9162 15.0726 10.9162 14.7509V9.65869C10.9162 9.08101 10.6738 8.79266 10.1898 8.79266C9.70579 8.79266 9.47293 9.08101 9.47293 9.65869V14.7509C9.47293 15.0726 9.20929 15.3325 8.88599 15.3325H6.29091C5.97531 15.3325 5.72032 15.0726 5.72032 14.7509V9.7293C5.72032 8.41899 6.14851 7.31561 7.00487 6.41918C7.8622 5.52177 8.91004 5.07356 10.1513 5.07356C11.5715 5.07356 12.7108 5.59435 13.5662 6.63594Z" fill="url(#paint0_radial_3044_4343)"/>
<path d="M13.5662 6.63594C14.2368 7.449 14.5726 8.58082 14.5726 10.0314V14.7509C14.5726 15.0726 14.3176 15.3325 14.002 15.3325H11.4868C11.1712 15.3325 10.9162 15.0726 10.9162 14.7509V9.65869C10.9162 9.08101 10.6738 8.79266 10.1898 8.79266C9.70579 8.79266 9.47293 9.08101 9.47293 9.65869V14.7509C9.47293 15.0726 9.20929 15.3325 8.88599 15.3325H6.29091C5.97531 15.3325 5.72032 15.0726 5.72032 14.7509V9.7293C5.72032 8.41899 6.14851 7.31561 7.00487 6.41918C7.8622 5.52177 8.91004 5.07356 10.1513 5.07356C11.5715 5.07356 12.7108 5.59435 13.5662 6.63594Z" fill="url(#paint1_radial_3044_4343)"/>
<path d="M13.5662 6.63594C14.2368 7.449 14.5726 8.58082 14.5726 10.0314V14.7509C14.5726 15.0726 14.3176 15.3325 14.002 15.3325H11.4868C11.1712 15.3325 10.9162 15.0726 10.9162 14.7509V9.65869C10.9162 9.08101 10.6738 8.79266 10.1898 8.79266C9.70579 8.79266 9.47293 9.08101 9.47293 9.65869V14.7509C9.47293 15.0726 9.20929 15.3325 8.88599 15.3325H6.29091C5.97531 15.3325 5.72032 15.0726 5.72032 14.7509V9.7293C5.72032 8.41899 6.14851 7.31561 7.00487 6.41918C7.8622 5.52177 8.91004 5.07356 10.1513 5.07356C11.5715 5.07356 12.7108 5.59435 13.5662 6.63594Z" fill="url(#paint2_radial_3044_4343)"/>
<path d="M47.051 6.83699C47.7226 7.70989 48.0575 8.97607 48.0575 10.6346V13.9368C48.0575 15.7356 47.5542 17.196 46.5458 18.318C45.5384 19.439 44.2269 20 42.6104 20C42.1966 20 41.6915 19.9127 41.0959 19.7362C40.8861 19.6754 40.7447 19.4772 40.7447 19.2566V16.939C40.7447 16.6075 41.0583 16.3643 41.3691 16.4623C41.6482 16.5496 41.9292 16.5938 42.212 16.5938C42.8808 16.5938 43.3956 16.3711 43.7602 15.9249C44.1239 15.4796 44.3048 14.8421 44.3048 14.0114V10.2275C44.3048 10.2275 43.9334 8.64555 43.0905 8.64555C42.7326 8.64555 42.4189 8.78482 42.1505 9.06336C41.881 9.34288 41.7473 9.66359 41.7473 10.0255C41.7473 10.409 41.8753 10.7277 42.1303 10.9837C42.3852 11.2387 42.7028 11.3662 43.0809 11.3662C43.1435 11.3662 43.206 11.3623 43.2676 11.3554C43.5553 11.3201 43.8237 11.8507 43.8237 11.8507V14.2468C43.8237 14.4635 43.6852 14.6587 43.4822 14.7195C43.0713 14.8421 42.6758 14.9039 42.2938 14.9039C41.1026 14.9039 40.0942 14.4468 39.2686 13.5337C38.4431 12.6216 38.0303 11.5045 38.0303 10.1854C38.0303 8.75932 38.5268 7.55688 39.5207 6.57709C40.5147 5.59729 41.7348 5.1069 43.1819 5.1069C43.9517 5.1069 44.6888 5.26383 45.3931 5.5767C46.0974 5.88956 46.6497 6.31032 47.051 6.83601V6.83699Z" fill="url(#paint3_radial_3044_4343)"/>
<path d="M47.051 6.83699C47.7226 7.70989 48.0575 8.97607 48.0575 10.6346V13.9368C48.0575 15.7356 47.5542 17.196 46.5458 18.318C45.5384 19.439 44.2269 20 42.6104 20C42.1966 20 41.6915 19.9127 41.0959 19.7362C40.8861 19.6754 40.7447 19.4772 40.7447 19.2566V16.939C40.7447 16.6075 41.0583 16.3643 41.3691 16.4623C41.6482 16.5496 41.9292 16.5938 42.212 16.5938C42.8808 16.5938 43.3956 16.3711 43.7602 15.9249C44.1239 15.4796 44.3048 14.8421 44.3048 14.0114V10.2275C44.3048 10.2275 43.9334 8.64555 43.0905 8.64555C42.7326 8.64555 42.4189 8.78482 42.1505 9.06336C41.881 9.34288 41.7473 9.66359 41.7473 10.0255C41.7473 10.409 41.8753 10.7277 42.1303 10.9837C42.3852 11.2387 42.7028 11.3662 43.0809 11.3662C43.1435 11.3662 43.206 11.3623 43.2676 11.3554C43.5553 11.3201 43.8237 11.8507 43.8237 11.8507V14.2468C43.8237 14.4635 43.6852 14.6587 43.4822 14.7195C43.0713 14.8421 42.6758 14.9039 42.2938 14.9039C41.1026 14.9039 40.0942 14.4468 39.2686 13.5337C38.4431 12.6216 38.0303 11.5045 38.0303 10.1854C38.0303 8.75932 38.5268 7.55688 39.5207 6.57709C40.5147 5.59729 41.7348 5.1069 43.1819 5.1069C43.9517 5.1069 44.6888 5.26383 45.3931 5.5767C46.0974 5.88956 46.6497 6.31032 47.051 6.83601V6.83699Z" fill="url(#paint4_radial_3044_4343)"/>
<path d="M47.051 6.83699C47.7226 7.70989 48.0575 8.97607 48.0575 10.6346V13.9368C48.0575 15.7356 47.5542 17.196 46.5458 18.318C45.5384 19.439 44.2269 20 42.6104 20C42.1966 20 41.6915 19.9127 41.0959 19.7362C40.8861 19.6754 40.7447 19.4772 40.7447 19.2566V16.939C40.7447 16.6075 41.0583 16.3643 41.3691 16.4623C41.6482 16.5496 41.9292 16.5938 42.212 16.5938C42.8808 16.5938 43.3956 16.3711 43.7602 15.9249C44.1239 15.4796 44.3048 14.8421 44.3048 14.0114V10.2275C44.3048 10.2275 43.9334 8.64555 43.0905 8.64555C42.7326 8.64555 42.4189 8.78482 42.1505 9.06336C41.881 9.34288 41.7473 9.66359 41.7473 10.0255C41.7473 10.409 41.8753 10.7277 42.1303 10.9837C42.3852 11.2387 42.7028 11.3662 43.0809 11.3662C43.1435 11.3662 43.206 11.3623 43.2676 11.3554C43.5553 11.3201 43.8237 11.8507 43.8237 11.8507V14.2468C43.8237 14.4635 43.6852 14.6587 43.4822 14.7195C43.0713 14.8421 42.6758 14.9039 42.2938 14.9039C41.1026 14.9039 40.0942 14.4468 39.2686 13.5337C38.4431 12.6216 38.0303 11.5045 38.0303 10.1854C38.0303 8.75932 38.5268 7.55688 39.5207 6.57709C40.5147 5.59729 41.7348 5.1069 43.1819 5.1069C43.9517 5.1069 44.6888 5.26383 45.3931 5.5767C46.0974 5.88956 46.6497 6.31032 47.051 6.83601V6.83699Z" fill="url(#paint5_radial_3044_4343)"/>
<path d="M21.5967 1.81149V5.16869C21.5967 5.25304 21.5284 5.32169 21.4466 5.31973C20.9655 5.31189 20.5961 5.46979 20.3391 5.79345C20.087 6.10926 19.961 6.55845 19.961 7.143V7.33523C19.961 7.4186 20.0274 7.48627 20.1092 7.48627H21.26C21.4457 7.48627 21.5967 7.64025 21.5967 7.82954V11.0377C21.5967 11.2976 21.3908 11.5075 21.1358 11.5075H20.1496C20.0457 11.5075 19.961 11.5938 19.961 11.6997V14.694C19.961 15.0471 19.681 15.3325 19.3346 15.3325H16.7742C16.4614 15.3325 16.2084 15.0745 16.2084 14.7558V6.79678C16.2084 5.8366 16.37 5.01667 16.6962 4.33798C17.108 3.47097 17.7335 2.76481 18.5745 2.21656C19.4145 1.66928 20.2891 1.39565 21.1994 1.39565C21.4207 1.40153 21.5967 1.58592 21.5967 1.81149Z" fill="url(#paint6_radial_3044_4343)"/>
<path d="M21.5967 1.81149V5.16869C21.5967 5.25304 21.5284 5.32169 21.4466 5.31973C20.9655 5.31189 20.5961 5.46979 20.3391 5.79345C20.087 6.10926 19.961 6.55845 19.961 7.143V7.33523C19.961 7.4186 20.0274 7.48627 20.1092 7.48627H21.26C21.4457 7.48627 21.5967 7.64025 21.5967 7.82954V11.0377C21.5967 11.2976 21.3908 11.5075 21.1358 11.5075H20.1496C20.0457 11.5075 19.961 11.5938 19.961 11.6997V14.694C19.961 15.0471 19.681 15.3325 19.3346 15.3325H16.7742C16.4614 15.3325 16.2084 15.0745 16.2084 14.7558V6.79678C16.2084 5.8366 16.37 5.01667 16.6962 4.33798C17.108 3.47097 17.7335 2.76481 18.5745 2.21656C19.4145 1.66928 20.2891 1.39565 21.1994 1.39565C21.4207 1.40153 21.5967 1.58592 21.5967 1.81149Z" fill="url(#paint7_radial_3044_4343)"/>
<path d="M21.5967 1.81149V5.16869C21.5967 5.25304 21.5284 5.32169 21.4466 5.31973C20.9655 5.31189 20.5961 5.46979 20.3391 5.79345C20.087 6.10926 19.961 6.55845 19.961 7.143V7.33523C19.961 7.4186 20.0274 7.48627 20.1092 7.48627H21.26C21.4457 7.48627 21.5967 7.64025 21.5967 7.82954V11.0377C21.5967 11.2976 21.3908 11.5075 21.1358 11.5075H20.1496C20.0457 11.5075 19.961 11.5938 19.961 11.6997V14.694C19.961 15.0471 19.681 15.3325 19.3346 15.3325H16.7742C16.4614 15.3325 16.2084 15.0745 16.2084 14.7558V6.79678C16.2084 5.8366 16.37 5.01667 16.6962 4.33798C17.108 3.47097 17.7335 2.76481 18.5745 2.21656C19.4145 1.66928 20.2891 1.39565 21.1994 1.39565C21.4207 1.40153 21.5967 1.58592 21.5967 1.81149Z" fill="url(#paint8_radial_3044_4343)"/>
<path d="M54.4215 5.06767C52.9224 5.06767 51.6619 5.56983 50.64 6.57415C49.6182 7.57846 49.1082 8.8162 49.1082 10.2883C49.1082 11.7605 49.6182 12.9668 50.64 13.9918C51.6619 15.0157 52.8925 15.5286 54.332 15.5286C55.7715 15.5286 57.0002 15.0177 58.0192 13.9967C59.0372 12.9757 59.5462 11.7389 59.5462 10.2883C59.5462 8.83778 59.0439 7.62946 58.0384 6.60455C57.0339 5.58062 55.8282 5.06767 54.4215 5.06767ZM55.3423 11.3662C55.0604 11.6624 54.7198 11.8095 54.3224 11.8095C53.925 11.8095 53.594 11.6624 53.3121 11.3662C53.0301 11.071 52.8897 10.715 52.8897 10.2982C52.8897 9.88133 53.0282 9.51746 53.3073 9.22519C53.5853 8.93291 53.924 8.78678 54.3224 8.78678C54.7207 8.78678 55.0681 8.93291 55.3471 9.22519C55.6252 9.51746 55.7647 9.87446 55.7647 10.2982C55.7647 10.7219 55.6243 11.071 55.3423 11.3662Z" fill="url(#paint9_radial_3044_4343)"/>
<path d="M54.4215 5.06767C52.9224 5.06767 51.6619 5.56983 50.64 6.57415C49.6182 7.57846 49.1082 8.8162 49.1082 10.2883C49.1082 11.7605 49.6182 12.9668 50.64 13.9918C51.6619 15.0157 52.8925 15.5286 54.332 15.5286C55.7715 15.5286 57.0002 15.0177 58.0192 13.9967C59.0372 12.9757 59.5462 11.7389 59.5462 10.2883C59.5462 8.83778 59.0439 7.62946 58.0384 6.60455C57.0339 5.58062 55.8282 5.06767 54.4215 5.06767ZM55.3423 11.3662C55.0604 11.6624 54.7198 11.8095 54.3224 11.8095C53.925 11.8095 53.594 11.6624 53.3121 11.3662C53.0301 11.071 52.8897 10.715 52.8897 10.2982C52.8897 9.88133 53.0282 9.51746 53.3073 9.22519C53.5853 8.93291 53.924 8.78678 54.3224 8.78678C54.7207 8.78678 55.0681 8.93291 55.3471 9.22519C55.6252 9.51746 55.7647 9.87446 55.7647 10.2982C55.7647 10.7219 55.6243 11.071 55.3423 11.3662Z" fill="url(#paint10_radial_3044_4343)"/>
<path d="M54.4215 5.06767C52.9224 5.06767 51.6619 5.56983 50.64 6.57415C49.6182 7.57846 49.1082 8.8162 49.1082 10.2883C49.1082 11.7605 49.6182 12.9668 50.64 13.9918C51.6619 15.0157 52.8925 15.5286 54.332 15.5286C55.7715 15.5286 57.0002 15.0177 58.0192 13.9967C59.0372 12.9757 59.5462 11.7389 59.5462 10.2883C59.5462 8.83778 59.0439 7.62946 58.0384 6.60455C57.0339 5.58062 55.8282 5.06767 54.4215 5.06767ZM55.3423 11.3662C55.0604 11.6624 54.7198 11.8095 54.3224 11.8095C53.925 11.8095 53.594 11.6624 53.3121 11.3662C53.0301 11.071 52.8897 10.715 52.8897 10.2982C52.8897 9.88133 53.0282 9.51746 53.3073 9.22519C53.5853 8.93291 53.924 8.78678 54.3224 8.78678C54.7207 8.78678 55.0681 8.93291 55.3471 9.22519C55.6252 9.51746 55.7647 9.87446 55.7647 10.2982C55.7647 10.7219 55.6243 11.071 55.3423 11.3662Z" fill="url(#paint11_radial_3044_4343)"/>
<path d="M3.8777 0.659082C4.32801 1.09945 4.55317 1.61926 4.55317 2.21852C4.55317 2.85995 4.34052 3.38564 3.91426 3.79659C3.488 4.20753 2.94243 4.4135 2.27658 4.4135C1.61074 4.4135 1.06516 4.20753 0.639868 3.79659C0.21361 3.38564 0 2.85995 0 2.21852C0 1.61926 0.225157 1.09945 0.676432 0.659082C1.12674 0.219694 1.65981 0 2.27658 0C2.89336 0 3.42738 0.219694 3.8777 0.659082Z" fill="url(#paint12_radial_3044_4343)"/>
<path d="M3.8777 0.659082C4.32801 1.09945 4.55317 1.61926 4.55317 2.21852C4.55317 2.85995 4.34052 3.38564 3.91426 3.79659C3.488 4.20753 2.94243 4.4135 2.27658 4.4135C1.61074 4.4135 1.06516 4.20753 0.639868 3.79659C0.21361 3.38564 0 2.85995 0 2.21852C0 1.61926 0.225157 1.09945 0.676432 0.659082C1.12674 0.219694 1.65981 0 2.27658 0C2.89336 0 3.42738 0.219694 3.8777 0.659082Z" fill="url(#paint13_radial_3044_4343)"/>
<path d="M3.8777 0.659082C4.32801 1.09945 4.55317 1.61926 4.55317 2.21852C4.55317 2.85995 4.34052 3.38564 3.91426 3.79659C3.488 4.20753 2.94243 4.4135 2.27658 4.4135C1.61074 4.4135 1.06516 4.20753 0.639868 3.79659C0.21361 3.38564 0 2.85995 0 2.21852C0 1.61926 0.225157 1.09945 0.676432 0.659082C1.12674 0.219694 1.65981 0 2.27658 0C2.89336 0 3.42738 0.219694 3.8777 0.659082Z" fill="url(#paint14_radial_3044_4343)"/>
<path d="M60.8635 13.3925L60.6624 1.86838V1.86053C60.6624 1.59867 60.9145 1.38584 61.2253 1.38584C63.1006 1.38584 64.6171 2.67458 64.6074 4.25853L64.5545 13.3876C64.5535 13.6495 64.3014 13.8613 63.9916 13.8613H61.4254C61.1185 13.8613 60.8673 13.6524 60.8625 13.3925H60.8635Z" fill="url(#paint15_radial_3044_4343)"/>
<path d="M60.8635 13.3925L60.6624 1.86838V1.86053C60.6624 1.59867 60.9145 1.38584 61.2253 1.38584C63.1006 1.38584 64.6171 2.67458 64.6074 4.25853L64.5545 13.3876C64.5535 13.6495 64.3014 13.8613 63.9916 13.8613H61.4254C61.1185 13.8613 60.8673 13.6524 60.8625 13.3925H60.8635Z" fill="url(#paint16_radial_3044_4343)"/>
<path d="M60.8635 13.3925L60.6624 1.86838V1.86053C60.6624 1.59867 60.9145 1.38584 61.2253 1.38584C63.1006 1.38584 64.6171 2.67458 64.6074 4.25853L64.5545 13.3876C64.5535 13.6495 64.3014 13.8613 63.9916 13.8613H61.4254C61.1185 13.8613 60.8673 13.6524 60.8625 13.3925H60.8635Z" fill="url(#paint17_radial_3044_4343)"/>
<path d="M4.18079 5.96705V14.7372C4.18079 15.0902 3.8979 15.3756 3.54958 15.3756C1.82531 15.3756 0.428182 13.9633 0.428182 12.2205V5.96705C0.428182 5.61397 0.708185 5.32856 1.05458 5.32856H3.54958C3.8979 5.32856 4.18079 5.61397 4.18079 5.96705Z" fill="url(#paint18_radial_3044_4343)"/>
<path d="M4.18079 5.96705V14.7372C4.18079 15.0902 3.8979 15.3756 3.54958 15.3756C1.82531 15.3756 0.428182 13.9633 0.428182 12.2205V5.96705C0.428182 5.61397 0.708185 5.32856 1.05458 5.32856H3.54958C3.8979 5.32856 4.18079 5.61397 4.18079 5.96705Z" fill="url(#paint19_radial_3044_4343)"/>
<path d="M4.18079 5.96705V14.7372C4.18079 15.0902 3.8979 15.3756 3.54958 15.3756C1.82531 15.3756 0.428182 13.9633 0.428182 12.2205V5.96705C0.428182 5.61397 0.708185 5.32856 1.05458 5.32856H3.54958C3.8979 5.32856 4.18079 5.61397 4.18079 5.96705Z" fill="url(#paint20_radial_3044_4343)"/>
<path d="M65 16.8998C65 17.5069 64.7874 18.0228 64.3621 18.4474C63.9368 18.8711 63.4229 19.083 62.8216 19.083C62.2202 19.083 61.6804 18.877 61.2763 18.4651C60.8721 18.0541 60.6701 17.5284 60.6701 16.8909C60.6701 16.2534 60.8798 15.7464 61.2994 15.3158C61.7179 14.8852 62.226 14.6695 62.8216 14.6695C63.4172 14.6695 63.9291 14.8902 64.3572 15.3295C64.7854 15.7699 65 16.2927 65 16.8998Z" fill="url(#paint21_radial_3044_4343)"/>
<path d="M65 16.8998C65 17.5069 64.7874 18.0228 64.3621 18.4474C63.9368 18.8711 63.4229 19.083 62.8216 19.083C62.2202 19.083 61.6804 18.877 61.2763 18.4651C60.8721 18.0541 60.6701 17.5284 60.6701 16.8909C60.6701 16.2534 60.8798 15.7464 61.2994 15.3158C61.7179 14.8852 62.226 14.6695 62.8216 14.6695C63.4172 14.6695 63.9291 14.8902 64.3572 15.3295C64.7854 15.7699 65 16.2927 65 16.8998Z" fill="url(#paint22_radial_3044_4343)"/>
<path d="M65 16.8998C65 17.5069 64.7874 18.0228 64.3621 18.4474C63.9368 18.8711 63.4229 19.083 62.8216 19.083C62.2202 19.083 61.6804 18.877 61.2763 18.4651C60.8721 18.0541 60.6701 17.5284 60.6701 16.8909C60.6701 16.2534 60.8798 15.7464 61.2994 15.3158C61.7179 14.8852 62.226 14.6695 62.8216 14.6695C63.4172 14.6695 63.9291 14.8902 64.3572 15.3295C64.7854 15.7699 65 16.2927 65 16.8998Z" fill="url(#paint23_radial_3044_4343)"/>
<path d="M36.8958 5.99353V11.0298C36.8958 12.3333 36.4677 13.4327 35.6113 14.3301C34.7549 15.2266 33.7061 15.6748 32.4649 15.6748C31.0514 15.6748 29.9121 15.155 29.05 14.1134C28.3793 13.3003 28.0435 12.1714 28.0435 10.7268V5.99353C28.0435 5.68066 28.2927 5.42664 28.6007 5.42664H31.24C31.5469 5.42664 31.7961 5.68066 31.7961 5.99353V11.1004C31.7961 11.6712 32.0386 11.9566 32.5226 11.9566C33.0066 11.9566 33.2395 11.6712 33.2395 11.1004V5.99353C33.2395 5.68066 33.4954 5.42664 33.8129 5.42664H36.3397C36.6466 5.42664 36.8958 5.68066 36.8958 5.99353Z" fill="url(#paint24_radial_3044_4343)"/>
<path d="M36.8958 5.99353V11.0298C36.8958 12.3333 36.4677 13.4327 35.6113 14.3301C34.7549 15.2266 33.7061 15.6748 32.4649 15.6748C31.0514 15.6748 29.9121 15.155 29.05 14.1134C28.3793 13.3003 28.0435 12.1714 28.0435 10.7268V5.99353C28.0435 5.68066 28.2927 5.42664 28.6007 5.42664H31.24C31.5469 5.42664 31.7961 5.68066 31.7961 5.99353V11.1004C31.7961 11.6712 32.0386 11.9566 32.5226 11.9566C33.0066 11.9566 33.2395 11.6712 33.2395 11.1004V5.99353C33.2395 5.68066 33.4954 5.42664 33.8129 5.42664H36.3397C36.6466 5.42664 36.8958 5.68066 36.8958 5.99353Z" fill="url(#paint25_radial_3044_4343)"/>
<path d="M36.8958 5.99353V11.0298C36.8958 12.3333 36.4677 13.4327 35.6113 14.3301C34.7549 15.2266 33.7061 15.6748 32.4649 15.6748C31.0514 15.6748 29.9121 15.155 29.05 14.1134C28.3793 13.3003 28.0435 12.1714 28.0435 10.7268V5.99353C28.0435 5.68066 28.2927 5.42664 28.6007 5.42664H31.24C31.5469 5.42664 31.7961 5.68066 31.7961 5.99353V11.1004C31.7961 11.6712 32.0386 11.9566 32.5226 11.9566C33.0066 11.9566 33.2395 11.6712 33.2395 11.1004V5.99353C33.2395 5.68066 33.4954 5.42664 33.8129 5.42664H36.3397C36.6466 5.42664 36.8958 5.68066 36.8958 5.99353Z" fill="url(#paint26_radial_3044_4343)"/>
<path d="M26.4078 2.17144V14.7607C26.4078 15.0765 26.1566 15.3325 25.8468 15.3325H23.2152C22.9063 15.3325 22.6552 15.0765 22.6552 14.7617V2.17144C22.6552 1.85759 22.9073 1.60161 23.22 1.60161H25.843C26.1557 1.60161 26.4078 1.85759 26.4078 2.17144Z" fill="url(#paint27_radial_3044_4343)"/>
<path d="M26.4078 2.17144V14.7607C26.4078 15.0765 26.1566 15.3325 25.8468 15.3325H23.2152C22.9063 15.3325 22.6552 15.0765 22.6552 14.7617V2.17144C22.6552 1.85759 22.9073 1.60161 23.22 1.60161H25.843C26.1557 1.60161 26.4078 1.85759 26.4078 2.17144Z" fill="url(#paint28_radial_3044_4343)"/>
<path d="M26.4078 2.17144V14.7607C26.4078 15.0765 26.1566 15.3325 25.8468 15.3325H23.2152C22.9063 15.3325 22.6552 15.0765 22.6552 14.7617V2.17144C22.6552 1.85759 22.9073 1.60161 23.22 1.60161H25.843C26.1557 1.60161 26.4078 1.85759 26.4078 2.17144Z" fill="url(#paint29_radial_3044_4343)"/>
<defs>
<radialGradient id="paint0_radial_3044_4343" cx="0" cy="0" r="1" gradientUnits="userSpaceOnUse" gradientTransform="translate(28.2173 12.1128) rotate(-21.8826) scale(50.8698 64.2892)">
<stop offset="0.215741" stop-color="#6504B1"/>
<stop offset="1" stop-color="#4604B1" stop-opacity="0.01"/>
</radialGradient>
<radialGradient id="paint1_radial_3044_4343" cx="0" cy="0" r="1" gradientUnits="userSpaceOnUse" gradientTransform="translate(11.6878 0.826053) rotate(28.0892) scale(33.2999 35.3112)">
<stop offset="0.192723" stop-color="#C40909"/>
<stop offset="1" stop-color="#F9434C" stop-opacity="0.01"/>
</radialGradient>
<radialGradient id="paint2_radial_3044_4343" cx="0" cy="0" r="1" gradientUnits="userSpaceOnUse" gradientTransform="translate(62.1624 18.2526) rotate(32.2196) scale(17.2066 14.4051)">
<stop offset="0.0508194" stop-color="#1B00BF"/>
<stop offset="1" stop-color="#0075FF" stop-opacity="0.01"/>
</radialGradient>
<radialGradient id="paint3_radial_3044_4343" cx="0" cy="0" r="1" gradientUnits="userSpaceOnUse" gradientTransform="translate(28.2173 12.1128) rotate(-21.8826) scale(50.8698 64.2892)">
<stop offset="0.215741" stop-color="#6504B1"/>
<stop offset="1" stop-color="#4604B1" stop-opacity="0.01"/>
</radialGradient>
<radialGradient id="paint4_radial_3044_4343" cx="0" cy="0" r="1" gradientUnits="userSpaceOnUse" gradientTransform="translate(11.6878 0.826053) rotate(28.0892) scale(33.2999 35.3112)">
<stop offset="0.192723" stop-color="#C40909"/>
<stop offset="1" stop-color="#F9434C" stop-opacity="0.01"/>
</radialGradient>
<radialGradient id="paint5_radial_3044_4343" cx="0" cy="0" r="1" gradientUnits="userSpaceOnUse" gradientTransform="translate(62.1624 18.2526) rotate(32.2196) scale(17.2066 14.4051)">
<stop offset="0.0508194" stop-color="#1B00BF"/>
<stop offset="1" stop-color="#0075FF" stop-opacity="0.01"/>
</radialGradient>
<radialGradient id="paint6_radial_3044_4343" cx="0" cy="0" r="1" gradientUnits="userSpaceOnUse" gradientTransform="translate(28.2173 12.1128) rotate(-21.8826) scale(50.8698 64.2892)">
<stop offset="0.215741" stop-color="#6504B1"/>
<stop offset="1" stop-color="#4604B1" stop-opacity="0.01"/>
</radialGradient>
<radialGradient id="paint7_radial_3044_4343" cx="0" cy="0" r="1" gradientUnits="userSpaceOnUse" gradientTransform="translate(11.6878 0.826053) rotate(28.0892) scale(33.2999 35.3112)">
<stop offset="0.192723" stop-color="#C40909"/>
<stop offset="1" stop-color="#F9434C" stop-opacity="0.01"/>
</radialGradient>
<radialGradient id="paint8_radial_3044_4343" cx="0" cy="0" r="1" gradientUnits="userSpaceOnUse" gradientTransform="translate(62.1624 18.2526) rotate(32.2196) scale(17.2066 14.4051)">
<stop offset="0.0508194" stop-color="#1B00BF"/>
<stop offset="1" stop-color="#0075FF" stop-opacity="0.01"/>
</radialGradient>
<radialGradient id="paint9_radial_3044_4343" cx="0" cy="0" r="1" gradientUnits="userSpaceOnUse" gradientTransform="translate(28.2173 12.1128) rotate(-21.8826) scale(50.8698 64.2892)">
<stop offset="0.215741" stop-color="#6504B1"/>
<stop offset="1" stop-color="#4604B1" stop-opacity="0.01"/>
</radialGradient>
<radialGradient id="paint10_radial_3044_4343" cx="0" cy="0" r="1" gradientUnits="userSpaceOnUse" gradientTransform="translate(11.6878 0.826053) rotate(28.0892) scale(33.2999 35.3112)">
<stop offset="0.192723" stop-color="#C40909"/>
<stop offset="1" stop-color="#F9434C" stop-opacity="0.01"/>
</radialGradient>
<radialGradient id="paint11_radial_3044_4343" cx="0" cy="0" r="1" gradientUnits="userSpaceOnUse" gradientTransform="translate(62.1624 18.2526) rotate(32.2196) scale(17.2066 14.4051)">
<stop offset="0.0508194" stop-color="#1B00BF"/>
<stop offset="1" stop-color="#0075FF" stop-opacity="0.01"/>
</radialGradient>
<radialGradient id="paint12_radial_3044_4343" cx="0" cy="0" r="1" gradientUnits="userSpaceOnUse" gradientTransform="translate(28.2173 12.1128) rotate(-21.8826) scale(50.8698 64.2892)">
<stop offset="0.215741" stop-color="#6504B1"/>
<stop offset="1" stop-color="#4604B1" stop-opacity="0.01"/>
</radialGradient>
<radialGradient id="paint13_radial_3044_4343" cx="0" cy="0" r="1" gradientUnits="userSpaceOnUse" gradientTransform="translate(11.6878 0.826053) rotate(28.0892) scale(33.2999 35.3112)">
<stop offset="0.192723" stop-color="#C40909"/>
<stop offset="1" stop-color="#F9434C" stop-opacity="0.01"/>
</radialGradient>
<radialGradient id="paint14_radial_3044_4343" cx="0" cy="0" r="1" gradientUnits="userSpaceOnUse" gradientTransform="translate(62.1624 18.2526) rotate(32.2196) scale(17.2066 14.4051)">
<stop offset="0.0508194" stop-color="#1B00BF"/>
<stop offset="1" stop-color="#0075FF" stop-opacity="0.01"/>
</radialGradient>
<radialGradient id="paint15_radial_3044_4343" cx="0" cy="0" r="1" gradientUnits="userSpaceOnUse" gradientTransform="translate(28.2173 12.1128) rotate(-21.8826) scale(50.8698 64.2892)">
<stop offset="0.215741" stop-color="#6504B1"/>
<stop offset="1" stop-color="#4604B1" stop-opacity="0.01"/>
</radialGradient>
<radialGradient id="paint16_radial_3044_4343" cx="0" cy="0" r="1" gradientUnits="userSpaceOnUse" gradientTransform="translate(11.6878 0.826053) rotate(28.0892) scale(33.2999 35.3112)">
<stop offset="0.192723" stop-color="#C40909"/>
<stop offset="1" stop-color="#F9434C" stop-opacity="0.01"/>
</radialGradient>
<radialGradient id="paint17_radial_3044_4343" cx="0" cy="0" r="1" gradientUnits="userSpaceOnUse" gradientTransform="translate(62.1624 18.2526) rotate(32.2196) scale(17.2066 14.4051)">
<stop offset="0.0508194" stop-color="#1B00BF"/>
<stop offset="1" stop-color="#0075FF" stop-opacity="0.01"/>
</radialGradient>
<radialGradient id="paint18_radial_3044_4343" cx="0" cy="0" r="1" gradientUnits="userSpaceOnUse" gradientTransform="translate(28.2173 12.1128) rotate(-21.8826) scale(50.8698 64.2892)">
<stop offset="0.215741" stop-color="#6504B1"/>
<stop offset="1" stop-color="#4604B1" stop-opacity="0.01"/>
</radialGradient>
<radialGradient id="paint19_radial_3044_4343" cx="0" cy="0" r="1" gradientUnits="userSpaceOnUse" gradientTransform="translate(11.6878 0.826053) rotate(28.0892) scale(33.2999 35.3112)">
<stop offset="0.192723" stop-color="#C40909"/>
<stop offset="1" stop-color="#F9434C" stop-opacity="0.01"/>
</radialGradient>
<radialGradient id="paint20_radial_3044_4343" cx="0" cy="0" r="1" gradientUnits="userSpaceOnUse" gradientTransform="translate(62.1624 18.2526) rotate(32.2196) scale(17.2066 14.4051)">
<stop offset="0.0508194" stop-color="#1B00BF"/>
<stop offset="1" stop-color="#0075FF" stop-opacity="0.01"/>
</radialGradient>
<radialGradient id="paint21_radial_3044_4343" cx="0" cy="0" r="1" gradientUnits="userSpaceOnUse" gradientTransform="translate(28.2173 12.1128) rotate(-21.8826) scale(50.8698 64.2892)">
<stop offset="0.215741" stop-color="#6504B1"/>
<stop offset="1" stop-color="#4604B1" stop-opacity="0.01"/>
</radialGradient>
<radialGradient id="paint22_radial_3044_4343" cx="0" cy="0" r="1" gradientUnits="userSpaceOnUse" gradientTransform="translate(11.6878 0.826053) rotate(28.0892) scale(33.2999 35.3112)">
<stop offset="0.192723" stop-color="#C40909"/>
<stop offset="1" stop-color="#F9434C" stop-opacity="0.01"/>
</radialGradient>
<radialGradient id="paint23_radial_3044_4343" cx="0" cy="0" r="1" gradientUnits="userSpaceOnUse" gradientTransform="translate(62.1624 18.2526) rotate(32.2196) scale(17.2066 14.4051)">
<stop offset="0.0508194" stop-color="#1B00BF"/>
<stop offset="1" stop-color="#0075FF" stop-opacity="0.01"/>
</radialGradient>
<radialGradient id="paint24_radial_3044_4343" cx="0" cy="0" r="1" gradientUnits="userSpaceOnUse" gradientTransform="translate(28.2173 12.1128) rotate(-21.8826) scale(50.8698 64.2892)">
<stop offset="0.215741" stop-color="#6504B1"/>
<stop offset="1" stop-color="#4604B1" stop-opacity="0.01"/>
</radialGradient>
<radialGradient id="paint25_radial_3044_4343" cx="0" cy="0" r="1" gradientUnits="userSpaceOnUse" gradientTransform="translate(11.6878 0.826053) rotate(28.0892) scale(33.2999 35.3112)">
<stop offset="0.192723" stop-color="#C40909"/>
<stop offset="1" stop-color="#F9434C" stop-opacity="0.01"/>
</radialGradient>
<radialGradient id="paint26_radial_3044_4343" cx="0" cy="0" r="1" gradientUnits="userSpaceOnUse" gradientTransform="translate(62.1624 18.2526) rotate(32.2196) scale(17.2066 14.4051)">
<stop offset="0.0508194" stop-color="#1B00BF"/>
<stop offset="1" stop-color="#0075FF" stop-opacity="0.01"/>
</radialGradient>
<radialGradient id="paint27_radial_3044_4343" cx="0" cy="0" r="1" gradientUnits="userSpaceOnUse" gradientTransform="translate(28.2173 12.1128) rotate(-21.8826) scale(50.8698 64.2892)">
<stop offset="0.215741" stop-color="#6504B1"/>
<stop offset="1" stop-color="#4604B1" stop-opacity="0.01"/>
</radialGradient>
<radialGradient id="paint28_radial_3044_4343" cx="0" cy="0" r="1" gradientUnits="userSpaceOnUse" gradientTransform="translate(11.6878 0.826053) rotate(28.0892) scale(33.2999 35.3112)">
<stop offset="0.192723" stop-color="#C40909"/>
<stop offset="1" stop-color="#F9434C" stop-opacity="0.01"/>
</radialGradient>
<radialGradient id="paint29_radial_3044_4343" cx="0" cy="0" r="1" gradientUnits="userSpaceOnUse" gradientTransform="translate(62.1624 18.2526) rotate(32.2196) scale(17.2066 14.4051)">
<stop offset="0.0508194" stop-color="#1B00BF"/>
<stop offset="1" stop-color="#0075FF" stop-opacity="0.01"/>
</radialGradient>
</defs>
</svg>
