<svg width="32" height="32" viewBox="0 0 32 32" fill="none" xmlns="http://www.w3.org/2000/svg">
<path d="M30.08 21.7332L19.8533 4.77325C19.4398 4.12634 18.87 3.59395 18.1966 3.22517C17.5232 2.85639 16.7678 2.66309 16 2.66309C15.2322 2.66309 14.4768 2.85639 13.8033 3.22517C13.1299 3.59395 12.5602 4.12634 12.1466 4.77325L1.91997 21.7332C1.55871 22.3355 1.36236 23.0222 1.35065 23.7243C1.33895 24.4265 1.51231 25.1193 1.8533 25.7332C2.24754 26.4243 2.81818 26.9982 3.50691 27.3965C4.19563 27.7947 4.97774 28.003 5.7733 27.9999H26.2266C27.017 28.0084 27.7956 27.8082 28.4838 27.4196C29.1721 27.031 29.7456 26.4677 30.1466 25.7866C30.4976 25.1663 30.6765 24.4635 30.6648 23.7508C30.6531 23.0382 30.4512 22.3417 30.08 21.7332ZM16 22.6666C15.7363 22.6666 15.4785 22.5884 15.2592 22.4419C15.0399 22.2954 14.869 22.0871 14.7681 21.8435C14.6672 21.5999 14.6408 21.3318 14.6923 21.0731C14.7437 20.8145 14.8707 20.5769 15.0572 20.3904C15.2436 20.204 15.4812 20.077 15.7399 20.0255C15.9985 19.9741 16.2666 20.0005 16.5102 20.1014C16.7539 20.2023 16.9621 20.3732 17.1086 20.5925C17.2551 20.8118 17.3333 21.0695 17.3333 21.3333C17.3333 21.6869 17.1928 22.026 16.9428 22.2761C16.6927 22.5261 16.3536 22.6666 16 22.6666ZM17.3333 17.3333C17.3333 17.6869 17.1928 18.026 16.9428 18.2761C16.6927 18.5261 16.3536 18.6666 16 18.6666C15.6463 18.6666 15.3072 18.5261 15.0572 18.2761C14.8071 18.026 14.6666 17.6869 14.6666 17.3333V11.9999C14.6666 11.6463 14.8071 11.3072 15.0572 11.0571C15.3072 10.8071 15.6463 10.6666 16 10.6666C16.3536 10.6666 16.6927 10.8071 16.9428 11.0571C17.1928 11.3072 17.3333 11.6463 17.3333 11.9999V17.3333Z" fill="#F2C94C"/>
</svg>
