<svg width="16" height="16" viewBox="0 0 16 16" fill="none" xmlns="http://www.w3.org/2000/svg">
<path fill-rule="evenodd" clip-rule="evenodd" d="M11.0833 0.5C11.3043 0.5 11.5163 0.587797 11.6726 0.744078C11.8289 0.900358 11.9167 1.11232 11.9167 1.33333V2.16667H13.5833C14.0254 2.16667 14.4493 2.34226 14.7618 2.65482C15.0744 2.96738 15.25 3.39131 15.25 3.83333V13.8333C15.25 14.2754 15.0744 14.6993 14.7618 15.0118C14.4493 15.3244 14.0254 15.5 13.5833 15.5H1.91667C1.47464 15.5 1.05072 15.3244 0.738155 15.0118C0.425595 14.6993 0.25 14.2754 0.25 13.8333V3.83333C0.25 3.39131 0.425595 2.96738 0.738155 2.65482C1.05072 2.34226 1.47464 2.16667 1.91667 2.16667H3.58333V1.33333C3.58333 1.11232 3.67113 0.900358 3.82741 0.744078C3.98369 0.587797 4.19565 0.5 4.41667 0.5C4.63768 0.5 4.84964 0.587797 5.00592 0.744078C5.1622 0.900358 5.25 1.11232 5.25 1.33333V2.16667H10.25V1.33333C10.25 1.11232 10.3378 0.900358 10.4941 0.744078C10.6504 0.587797 10.8623 0.5 11.0833 0.5ZM4.41667 3.83333H1.91667V5.5H13.5833V3.83333H11.0833H4.41667ZM1.91667 7.16667V13.8333H13.5833V7.16667H1.91667ZM3.58333 8.83333C3.58333 8.61232 3.67113 8.40036 3.82741 8.24408C3.98369 8.0878 4.19565 8 4.41667 8H4.425C4.64601 8 4.85798 8.0878 5.01426 8.24408C5.17054 8.40036 5.25833 8.61232 5.25833 8.83333C5.25833 9.05435 5.17054 9.26631 5.01426 9.42259C4.85798 9.57887 4.64601 9.66667 4.425 9.66667H4.41667C4.19565 9.66667 3.98369 9.57887 3.82741 9.42259C3.67113 9.26631 3.58333 9.05435 3.58333 8.83333ZM4.41667 10.5C4.19565 10.5 3.98369 10.5878 3.82741 10.7441C3.67113 10.9004 3.58333 11.1123 3.58333 11.3333C3.58333 11.5543 3.67113 11.7663 3.82741 11.9226C3.98369 12.0789 4.19565 12.1667 4.41667 12.1667H4.425C4.64601 12.1667 4.85798 12.0789 5.01426 11.9226C5.17054 11.7663 5.25833 11.5543 5.25833 11.3333C5.25833 11.1123 5.17054 10.9004 5.01426 10.7441C4.85798 10.5878 4.64601 10.5 4.425 10.5H4.41667ZM6.91667 8.83333C6.91667 8.61232 7.00446 8.40036 7.16074 8.24408C7.31702 8.0878 7.52899 8 7.75 8H7.75833C7.97935 8 8.19131 8.0878 8.34759 8.24408C8.50387 8.40036 8.59167 8.61232 8.59167 8.83333C8.59167 9.05435 8.50387 9.26631 8.34759 9.42259C8.19131 9.57887 7.97935 9.66667 7.75833 9.66667H7.75C7.52899 9.66667 7.31702 9.57887 7.16074 9.42259C7.00446 9.26631 6.91667 9.05435 6.91667 8.83333ZM7.75 10.5C7.52899 10.5 7.31702 10.5878 7.16074 10.7441C7.00446 10.9004 6.91667 11.1123 6.91667 11.3333C6.91667 11.5543 7.00446 11.7663 7.16074 11.9226C7.31702 12.0789 7.52899 12.1667 7.75 12.1667H7.75833C7.97935 12.1667 8.19131 12.0789 8.34759 11.9226C8.50387 11.7663 8.59167 11.5543 8.59167 11.3333C8.59167 11.1123 8.50387 10.9004 8.34759 10.7441C8.19131 10.5878 7.97935 10.5 7.75833 10.5H7.75ZM10.25 8.83333C10.25 8.61232 10.3378 8.40036 10.4941 8.24408C10.6504 8.0878 10.8623 8 11.0833 8H11.0917C11.3127 8 11.5246 8.0878 11.6809 8.24408C11.8372 8.40036 11.925 8.61232 11.925 8.83333C11.925 9.05435 11.8372 9.26631 11.6809 9.42259C11.5246 9.57887 11.3127 9.66667 11.0917 9.66667H11.0833C10.8623 9.66667 10.6504 9.57887 10.4941 9.42259C10.3378 9.26631 10.25 9.05435 10.25 8.83333ZM11.0833 10.5C10.8623 10.5 10.6504 10.5878 10.4941 10.7441C10.3378 10.9004 10.25 11.1123 10.25 11.3333C10.25 11.5543 10.3378 11.7663 10.4941 11.9226C10.6504 12.0789 10.8623 12.1667 11.0833 12.1667H11.0917C11.3127 12.1667 11.5246 12.0789 11.6809 11.9226C11.8372 11.7663 11.925 11.5543 11.925 11.3333C11.925 11.1123 11.8372 10.9004 11.6809 10.7441C11.5246 10.5878 11.3127 10.5 11.0917 10.5H11.0833Z" fill="#222222"/>
</svg>
