<svg width="15" height="15" viewBox="0 0 15 15" fill="none" xmlns="http://www.w3.org/2000/svg">
<path d="M7.5 5.625C6.48375 5.625 5.625 6.48375 5.625 7.5C5.625 8.51625 6.48375 9.375 7.5 9.375C8.51625 9.375 9.375 8.51625 9.375 7.5C9.375 6.48375 8.51625 5.625 7.5 5.625Z" fill="black"/>
<path d="M12.5 3.125H10.8837L9.19187 1.43312C9.07469 1.31591 8.91575 1.25004 8.75 1.25H6.25C6.08425 1.25004 5.92531 1.31591 5.80813 1.43312L4.11625 3.125H2.5C1.81062 3.125 1.25 3.68563 1.25 4.375V11.25C1.25 11.9394 1.81062 12.5 2.5 12.5H12.5C13.1894 12.5 13.75 11.9394 13.75 11.25V4.375C13.75 3.68563 13.1894 3.125 12.5 3.125ZM7.5 10.625C5.80625 10.625 4.375 9.19375 4.375 7.5C4.375 5.80625 5.80625 4.375 7.5 4.375C9.19375 4.375 10.625 5.80625 10.625 7.5C10.625 9.19375 9.19375 10.625 7.5 10.625Z" fill="black"/>
</svg>
