<svg width="16" height="16" viewBox="0 0 16 16" fill="none" xmlns="http://www.w3.org/2000/svg">
<path d="M1 7.66667C1 5.89856 1.70238 4.20286 2.95262 2.95262C4.20286 1.70238 5.89856 1 7.66667 1C9.43478 1 11.1305 1.70238 12.3807 2.95262C13.631 4.20286 14.3333 5.89856 14.3333 7.66667V11.9083C14.3333 12.615 14.3333 12.9667 14.2283 13.2492C14.1448 13.473 14.0142 13.6763 13.8453 13.8453C13.6763 14.0142 13.473 14.1448 13.2492 14.2283C12.9667 14.3333 12.6142 14.3333 11.9083 14.3333H7.66667C5.89856 14.3333 4.20286 13.631 2.95262 12.3807C1.70238 11.1305 1 9.43478 1 7.66667Z" stroke="#222222" stroke-width="2"/>
<path d="M5.1665 6.83337H10.1665M7.6665 10.1667H10.1665" stroke="#222222" stroke-width="2" stroke-linecap="round" stroke-linejoin="round"/>
</svg>
