<svg width="17" height="17" viewBox="0 0 17 17" fill="none" xmlns="http://www.w3.org/2000/svg">
<path d="M5 12.1667C5 12.1667 10.8333 13 13.3333 15.5H14.1667C14.3877 15.5 14.5996 15.4122 14.7559 15.2559C14.9122 15.0996 15 14.8877 15 14.6667V9.61417C15.3581 9.52209 15.6755 9.31352 15.9021 9.02129C16.1287 8.72907 16.2516 8.36978 16.2516 8C16.2516 7.63022 16.1287 7.27093 15.9021 6.97871C15.6755 6.68648 15.3581 6.47791 15 6.38583V1.33333C15 1.11232 14.9122 0.900358 14.7559 0.744078C14.5996 0.587797 14.3877 0.5 14.1667 0.5H13.3333C10.8333 3 5 3.83333 5 3.83333H1.66667C1.22464 3.83333 0.800716 4.00893 0.488155 4.32149C0.175595 4.63405 0 5.05797 0 5.5V10.5C0 10.942 0.175595 11.366 0.488155 11.6785C0.800716 11.9911 1.22464 12.1667 1.66667 12.1667H2.5L3.33333 16.3333H5V12.1667ZM6.66667 5.2175C7.23583 5.09583 7.93917 4.92583 8.7 4.70333C10.0983 4.29167 11.875 3.64417 13.3333 2.645V13.3542C11.875 12.3558 10.0975 11.7083 8.7 11.2967C8.02879 11.1005 7.35055 10.9293 6.66667 10.7833V5.2175ZM1.66667 5.5H5V10.5H1.66667V5.5Z" fill="#222222"/>
</svg>
