<svg width="18" height="18" viewBox="0 0 18 18" fill="none" xmlns="http://www.w3.org/2000/svg">
<path d="M13.1921 4.80808C13.1101 4.726 13.0068 4.66838 12.8939 4.64166C12.781 4.61495 12.6628 4.6202 12.5527 4.65683L6.92773 6.53183C6.83558 6.5625 6.75184 6.61423 6.68317 6.6829C6.6145 6.75158 6.56277 6.83531 6.5321 6.92746L4.6571 12.5525C4.62038 12.6626 4.61505 12.7808 4.64171 12.8937C4.66837 13.0067 4.72597 13.11 4.80806 13.1921C4.89014 13.2742 4.99347 13.3318 5.10645 13.3585C5.21943 13.3851 5.3376 13.3798 5.44773 13.3431L11.0727 11.4681C11.1649 11.4374 11.2486 11.3857 11.3173 11.317C11.386 11.2483 11.4377 11.1646 11.4684 11.0725L13.3434 5.44746C13.38 5.33735 13.3852 5.21922 13.3585 5.10629C13.3318 4.99337 13.2742 4.89011 13.1921 4.80808ZM6.23835 11.7625L7.6196 7.61996L10.3815 10.3818L6.23835 11.7625Z" fill="url(#paint0_linear_6194_9367)"/>
<path d="M9 17.75C7.26942 17.75 5.57769 17.2368 4.13876 16.2754C2.69983 15.3139 1.57832 13.9473 0.916058 12.3485C0.253791 10.7496 0.0805121 8.9903 0.418133 7.29296C0.755753 5.59563 1.58911 4.03653 2.81282 2.81282C4.03653 1.58911 5.59563 0.755753 7.29296 0.418133C8.9903 0.0805121 10.7496 0.253791 12.3485 0.916058C13.9473 1.57832 15.3139 2.69983 16.2754 4.13876C17.2368 5.57769 17.75 7.26942 17.75 9C17.7474 11.3198 16.8246 13.5439 15.1843 15.1843C13.5439 16.8246 11.3198 17.7474 9 17.75ZM9 1.5C7.51664 1.5 6.0666 1.93987 4.83323 2.76398C3.59986 3.58809 2.63856 4.75943 2.07091 6.12988C1.50325 7.50032 1.35473 9.00832 1.64411 10.4632C1.9335 11.918 2.64781 13.2544 3.6967 14.3033C4.7456 15.3522 6.08197 16.0665 7.53683 16.3559C8.99168 16.6453 10.4997 16.4968 11.8701 15.9291C13.2406 15.3614 14.4119 14.4001 15.236 13.1668C16.0601 11.9334 16.5 10.4834 16.5 9C16.4977 7.01159 15.7068 5.10528 14.3007 3.69926C12.8947 2.29324 10.9884 1.50232 9 1.5Z" fill="url(#paint1_linear_6194_9367)"/>
<defs>
<linearGradient id="paint0_linear_6194_9367" x1="4.72415" y1="5.17177" x2="13.566" y2="5.38278" gradientUnits="userSpaceOnUse">
<stop stop-color="#C20B0C"/>
<stop offset="0.497302" stop-color="#7E0F9D"/>
<stop offset="1" stop-color="#2616C7"/>
</linearGradient>
<linearGradient id="paint1_linear_6194_9367" x1="0.4483" y1="1.34375" x2="18.1315" y2="1.76574" gradientUnits="userSpaceOnUse">
<stop stop-color="#C20B0C"/>
<stop offset="0.497302" stop-color="#7E0F9D"/>
<stop offset="1" stop-color="#2616C7"/>
</linearGradient>
</defs>
</svg>
