<svg width="64" height="64" viewBox="0 0 123 197" fill="none" xmlns="http://www.w3.org/2000/svg">
<path d="M114.04 146.28C108.43 140.69 101.23 136.9 92.47 136.9C83.71 136.9 76.5 139.69 70.89 145.28C65.27 150.87 62.47 158.02 62.47 166.73C62.47 174.89 65.43 181.96 71.37 187.94C77.3 193.91 84.34 196.9 92.47 196.9C100.6 196.9 107.63 193.91 113.56 187.94C119.5 181.96 122.47 174.89 122.47 166.73C122.47 158.02 119.66 151.87 114.04 146.28ZM102.38 14.92C94.84 7.38 84.85 2.28 73.72 0.89C71.63 0.63 69.5 1.52 68.39 3.31C68.36 3.36 68.32 3.42 68.29 3.47C67.81 4.3 67.58 5.25 67.58 6.21L69.2 109.51C69.2 117.01 73.66 123.2 81.16 123.2H103.22C110.72 123.2 115.21 119.01 115.21 111.51L116.8 49.71C116.8 36.13 111.29 23.83 102.39 14.92H102.38Z" fill="url(#paint0_radial_427_2239)"/>
<path d="M114.04 146.28C108.43 140.69 101.23 136.9 92.47 136.9C83.71 136.9 76.5 139.69 70.89 145.28C65.27 150.87 62.47 158.02 62.47 166.73C62.47 174.89 65.43 181.96 71.37 187.94C77.3 193.91 84.34 196.9 92.47 196.9C100.6 196.9 107.63 193.91 113.56 187.94C119.5 181.96 122.47 174.89 122.47 166.73C122.47 158.02 119.66 151.87 114.04 146.28ZM102.38 14.92C94.84 7.38 84.85 2.28 73.72 0.89C71.63 0.63 69.5 1.52 68.39 3.31C68.36 3.36 68.32 3.42 68.29 3.47C67.81 4.3 67.58 5.25 67.58 6.21L69.2 109.51C69.2 117.01 73.66 123.2 81.16 123.2H103.22C110.72 123.2 115.21 119.01 115.21 111.51L116.8 49.71C116.8 36.13 111.29 23.83 102.39 14.92H102.38Z" fill="url(#paint1_radial_427_2239)"/>
<path d="M114.04 146.28C108.43 140.69 101.23 136.9 92.47 136.9C83.71 136.9 76.5 139.69 70.89 145.28C65.27 150.87 62.47 158.02 62.47 166.73C62.47 174.89 65.43 181.96 71.37 187.94C77.3 193.91 84.34 196.9 92.47 196.9C100.6 196.9 107.63 193.91 113.56 187.94C119.5 181.96 122.47 174.89 122.47 166.73C122.47 158.02 119.66 151.87 114.04 146.28ZM102.38 14.92C94.84 7.38 84.85 2.28 73.72 0.89C71.63 0.63 69.5 1.52 68.39 3.31C68.36 3.36 68.32 3.42 68.29 3.47C67.81 4.3 67.58 5.25 67.58 6.21L69.2 109.51C69.2 117.01 73.66 123.2 81.16 123.2H103.22C110.72 123.2 115.21 119.01 115.21 111.51L116.8 49.71C116.8 36.13 111.29 23.83 102.39 14.92H102.38Z" fill="url(#paint2_radial_427_2239)"/>
<path d="M8.43 50.62C14.04 56.21 21.24 60 30 60C38.76 60 45.97 57.21 51.58 51.62C57.2 46.03 60 38.88 60 30.17C60 22.01 57.04 14.94 51.1 8.96C45.17 2.99 38.13 0 30 0C21.87 0 14.84 2.99 8.91 8.96C2.97 14.94 0 22.01 0 30.17C0 38.88 2.81 45.03 8.43 50.62ZM20.09 181.98C27.63 189.52 37.62 194.62 48.75 196.01C50.84 196.27 52.97 195.38 54.08 193.59C54.11 193.54 54.15 193.48 54.18 193.43C54.66 192.6 54.89 191.65 54.89 190.69V87.28C54.89 79.78 48.81 73.7 41.31 73.7H19.25C11.75 73.7 5.67 79.78 5.67 87.28V147.19C5.67 160.77 11.18 173.07 20.08 181.98H20.09Z" fill="url(#paint3_radial_427_2239)"/>
<path d="M8.43 50.62C14.04 56.21 21.24 60 30 60C38.76 60 45.97 57.21 51.58 51.62C57.2 46.03 60 38.88 60 30.17C60 22.01 57.04 14.94 51.1 8.96C45.17 2.99 38.13 0 30 0C21.87 0 14.84 2.99 8.91 8.96C2.97 14.94 0 22.01 0 30.17C0 38.88 2.81 45.03 8.43 50.62ZM20.09 181.98C27.63 189.52 37.62 194.62 48.75 196.01C50.84 196.27 52.97 195.38 54.08 193.59C54.11 193.54 54.15 193.48 54.18 193.43C54.66 192.6 54.89 191.65 54.89 190.69V87.28C54.89 79.78 48.81 73.7 41.31 73.7H19.25C11.75 73.7 5.67 79.78 5.67 87.28V147.19C5.67 160.77 11.18 173.07 20.08 181.98H20.09Z" fill="url(#paint4_radial_427_2239)"/>
<path d="M8.43 50.62C14.04 56.21 21.24 60 30 60C38.76 60 45.97 57.21 51.58 51.62C57.2 46.03 60 38.88 60 30.17C60 22.01 57.04 14.94 51.1 8.96C45.17 2.99 38.13 0 30 0C21.87 0 14.84 2.99 8.91 8.96C2.97 14.94 0 22.01 0 30.17C0 38.88 2.81 45.03 8.43 50.62ZM20.09 181.98C27.63 189.52 37.62 194.62 48.75 196.01C50.84 196.27 52.97 195.38 54.08 193.59C54.11 193.54 54.15 193.48 54.18 193.43C54.66 192.6 54.89 191.65 54.89 190.69V87.28C54.89 79.78 48.81 73.7 41.31 73.7H19.25C11.75 73.7 5.67 79.78 5.67 87.28V147.19C5.67 160.77 11.18 173.07 20.08 181.98H20.09Z" fill="url(#paint5_radial_427_2239)"/>
<path d="M113.687 146.634L113.687 146.634C119.216 152.134 121.97 158.157 121.97 166.73C121.97 174.753 119.056 181.698 113.205 187.588C107.365 193.467 100.461 196.4 92.47 196.4C84.4784 196.4 77.5646 193.467 71.7247 187.588C65.8747 181.698 62.97 174.754 62.97 166.73C62.97 158.138 65.727 151.121 71.2426 145.634L71.2429 145.634C76.7484 140.148 83.8262 137.4 92.47 137.4C101.072 137.4 108.151 141.118 113.687 146.634ZM102.026 15.2736L102.173 15.42H102.182C110.905 24.2269 116.298 36.3386 116.3 49.7037L114.71 111.497H114.71V111.51C114.71 115.159 113.62 117.939 111.681 119.807C109.738 121.679 106.879 122.7 103.22 122.7H81.16C77.5607 122.7 74.7115 121.22 72.753 118.849C70.787 116.469 69.7 113.165 69.7001 109.51L69.6999 109.502L68.08 6.21C68.08 6.20871 68.08 6.20743 68.08 6.20614C68.0806 5.32783 68.2911 4.46855 68.7207 3.724C68.7313 3.70641 68.7445 3.68563 68.7618 3.65844L68.7636 3.65561C68.7788 3.6317 68.7976 3.60217 68.8149 3.5735C69.8104 1.96815 71.7391 1.14751 73.658 1.38615C84.6744 2.76195 94.5627 7.80979 102.026 15.2736ZM8.78292 50.2658L8.78261 50.2655C3.25398 44.7664 0.5 38.7428 0.5 30.17C0.5 22.1468 3.41436 15.2021 9.26474 9.31236L8.91 8.96L9.26474 9.31236C15.1047 3.433 22.0085 0.5 30 0.5C37.9917 0.5 44.9054 3.43314 50.7453 9.31236L51.1 8.96L50.7453 9.31236C56.5953 15.2018 59.5 22.1464 59.5 30.17C59.5 38.7619 56.743 45.7794 51.2274 51.2655L51.2271 51.2658C45.7216 56.7517 38.6438 59.5 30 59.5C21.3981 59.5 14.3192 55.7824 8.78292 50.2658ZM20.4436 181.626L20.2971 181.48H20.2879C11.5632 172.672 6.17 160.558 6.17 147.19V87.28C6.17 80.0561 12.0261 74.2 19.25 74.2H41.31C48.5339 74.2 54.39 80.0561 54.39 87.28V190.69C54.39 191.57 54.1796 192.43 53.7495 193.176C53.7388 193.193 53.7256 193.214 53.7082 193.242L53.7067 193.244C53.6914 193.268 53.6725 193.298 53.6551 193.326C52.6595 194.932 50.7308 195.753 48.8117 195.514C37.7955 194.138 27.9073 189.09 20.4436 181.626Z" stroke="url(#paint6_linear_427_2239)" stroke-opacity="0.6"/>
<defs>
<radialGradient id="paint0_radial_427_2239" cx="0" cy="0" r="1" gradientUnits="userSpaceOnUse" gradientTransform="translate(53.1657 119.25) rotate(-64.5224) scale(206.763 293.398)">
<stop offset="0.215741" stop-color="#6504B1"/>
<stop offset="1" stop-color="#4604B1" stop-opacity="0.01"/>
</radialGradient>
<radialGradient id="paint1_radial_427_2239" cx="0" cy="0" r="1" gradientUnits="userSpaceOnUse" gradientTransform="translate(22.0215 8.13249) rotate(70.2728) scale(163.985 133.009)">
<stop offset="0.192723" stop-color="#C40909"/>
<stop offset="1" stop-color="#F9434C" stop-opacity="0.01"/>
</radialGradient>
<radialGradient id="paint2_radial_427_2239" cx="0" cy="0" r="1" gradientUnits="userSpaceOnUse" gradientTransform="translate(117.124 179.697) rotate(73.1076) scale(94.3903 48.7096)">
<stop offset="0.0508194" stop-color="#1B00BF"/>
<stop offset="1" stop-color="#0075FF" stop-opacity="0.01"/>
</radialGradient>
<radialGradient id="paint3_radial_427_2239" cx="0" cy="0" r="1" gradientUnits="userSpaceOnUse" gradientTransform="translate(53.1657 119.25) rotate(-64.5224) scale(206.763 293.398)">
<stop offset="0.215741" stop-color="#6504B1"/>
<stop offset="1" stop-color="#4604B1" stop-opacity="0.01"/>
</radialGradient>
<radialGradient id="paint4_radial_427_2239" cx="0" cy="0" r="1" gradientUnits="userSpaceOnUse" gradientTransform="translate(22.0215 8.13249) rotate(70.2728) scale(163.985 133.009)">
<stop offset="0.192723" stop-color="#C40909"/>
<stop offset="1" stop-color="#F9434C" stop-opacity="0.01"/>
</radialGradient>
<radialGradient id="paint5_radial_427_2239" cx="0" cy="0" r="1" gradientUnits="userSpaceOnUse" gradientTransform="translate(117.124 179.697) rotate(73.1076) scale(94.3903 48.7096)">
<stop offset="0.0508194" stop-color="#1B00BF"/>
<stop offset="1" stop-color="#0075FF" stop-opacity="0.01"/>
</radialGradient>
<linearGradient id="paint6_linear_427_2239" x1="5.29918" y1="4.81151e-06" x2="163.898" y2="42.2979" gradientUnits="userSpaceOnUse">
<stop stop-color="white"/>
<stop offset="0.18" stop-color="#F9434C"/>
<stop offset="0.33" stop-color="white"/>
<stop offset="0.505" stop-color="#5A33FF"/>
<stop offset="0.655" stop-color="white"/>
<stop offset="0.8" stop-color="#0075FF"/>
<stop offset="0.965" stop-color="white"/>
</linearGradient>
</defs>
</svg>
