<svg width="20" height="21" viewBox="0 0 20 21" fill="none" xmlns="http://www.w3.org/2000/svg">
<path d="M13.0002 16.5V17.25C13.0002 18.0456 12.6842 18.8087 12.1216 19.3713C11.5589 19.9339 10.7959 20.25 10.0002 20.25C9.20458 20.25 8.44152 19.9339 7.87891 19.3713C7.3163 18.8087 7.00023 18.0456 7.00023 17.25V16.5M18.0477 14.9733C16.844 13.5 15.9941 12.75 15.9941 8.68828C15.9941 4.96875 14.0948 3.64359 12.5315 3C12.3238 2.91469 12.1284 2.71875 12.0651 2.50547C11.7909 1.57219 11.0221 0.75 10.0002 0.75C8.97836 0.75 8.20914 1.57266 7.93773 2.50641C7.87445 2.72203 7.67898 2.91469 7.47133 3C5.90617 3.64453 4.00867 4.965 4.00867 8.68828C4.00633 12.75 3.15648 13.5 1.95273 14.9733C1.45398 15.5836 1.89086 16.5 2.7632 16.5H17.242C18.1096 16.5 18.5437 15.5808 18.0477 14.9733Z" stroke="url(#paint0_linear_6196_9383)" stroke-width="1.5" stroke-linecap="round" stroke-linejoin="round"/>
<defs>
<linearGradient id="paint0_linear_6196_9383" x1="1.9298" y1="1.96875" x2="18.6193" y2="2.30604" gradientUnits="userSpaceOnUse">
<stop stop-color="#C20B0C"/>
<stop offset="0.497302" stop-color="#7E0F9D"/>
<stop offset="1" stop-color="#2616C7"/>
</linearGradient>
</defs>
</svg>
