<svg width="20" height="20" viewBox="0 0 20 20" fill="none" xmlns="http://www.w3.org/2000/svg">
<path fill-rule="evenodd" clip-rule="evenodd" d="M13.3337 7.50008C13.3337 8.38414 12.9825 9.23198 12.3573 9.8571C11.7322 10.4822 10.8844 10.8334 10.0003 10.8334C9.11627 10.8334 8.26842 10.4822 7.6433 9.8571C7.01818 9.23198 6.66699 8.38414 6.66699 7.50008C6.66699 6.61603 7.01818 5.76818 7.6433 5.14306C8.26842 4.51794 9.11627 4.16675 10.0003 4.16675C10.8844 4.16675 11.7322 4.51794 12.3573 5.14306C12.9825 5.76818 13.3337 6.61603 13.3337 7.50008ZM11.667 7.50008C11.667 7.94211 11.4914 8.36603 11.1788 8.67859C10.8663 8.99115 10.4424 9.16675 10.0003 9.16675C9.5583 9.16675 9.13438 8.99115 8.82181 8.67859C8.50925 8.36603 8.33366 7.94211 8.33366 7.50008C8.33366 7.05805 8.50925 6.63413 8.82181 6.32157C9.13438 6.00901 9.5583 5.83341 10.0003 5.83341C10.4424 5.83341 10.8663 6.00901 11.1788 6.32157C11.4914 6.63413 11.667 7.05805 11.667 7.50008Z" fill="#222222"/>
<path fill-rule="evenodd" clip-rule="evenodd" d="M10.0002 0.833374C4.93766 0.833374 0.833496 4.93754 0.833496 10C0.833496 15.0625 4.93766 19.1667 10.0002 19.1667C15.0627 19.1667 19.1668 15.0625 19.1668 10C19.1668 4.93754 15.0627 0.833374 10.0002 0.833374ZM2.50016 10C2.50016 11.7417 3.09433 13.345 4.09016 14.6184C4.7897 13.7001 5.69196 12.956 6.72653 12.444C7.7611 11.932 8.89999 11.666 10.0543 11.6667C11.1938 11.6654 12.3186 11.9243 13.3428 12.4237C14.367 12.9231 15.2636 13.6498 15.9643 14.5484C16.6864 13.6014 17.1725 12.4961 17.3826 11.3239C17.5926 10.1517 17.5205 8.94632 17.1722 7.80753C16.824 6.66874 16.2095 5.62925 15.3797 4.77507C14.55 3.9209 13.5287 3.27659 12.4005 2.89546C11.2723 2.51434 10.0695 2.40735 8.89171 2.58335C7.71393 2.75935 6.59499 3.21328 5.62747 3.90759C4.65995 4.60189 3.87167 5.5166 3.32785 6.57604C2.78404 7.63548 2.50031 8.80918 2.50016 10ZM10.0002 17.5C8.27842 17.5028 6.60862 16.9105 5.2735 15.8234C5.81084 15.0539 6.52616 14.4256 7.35856 13.9921C8.19096 13.5586 9.11579 13.3326 10.0543 13.3334C10.9811 13.3326 11.8948 13.5529 12.7193 13.9761C13.5439 14.3993 14.2555 15.0132 14.7952 15.7667C13.4497 16.8892 11.7524 17.5028 10.0002 17.5Z" fill="#222222"/>
</svg>
