<svg width="26" height="32" viewBox="0 0 26 32" fill="none" xmlns="http://www.w3.org/2000/svg">
<path d="M23.5 4H18V3C18 1.34312 16.6569 0 15 0H11C9.34313 0 8 1.34312 8 3V4H2.5C1.11931 4 0 5.11931 0 6.5V8.5C0 9.05231 0.447688 9.5 1 9.5H25C25.5523 9.5 26 9.05231 26 8.5V6.5C26 5.11931 24.8807 4 23.5 4ZM10 3C10 2.44875 10.4487 2 11 2H15C15.5513 2 16 2.44875 16 3V4H10V3Z" fill="#FF6058"/>
<path d="M1.89769 11.5C1.71925 11.5 1.57707 11.6491 1.58557 11.8274L2.41057 29.1425C2.48682 30.745 3.80307 32 5.40682 32H20.5931C22.1968 32 23.5131 30.745 23.5893 29.1425L24.4143 11.8274C24.4228 11.6491 24.2806 11.5 24.1022 11.5H1.89769ZM16.9999 14C16.9999 13.4475 17.4474 13 17.9999 13C18.5524 13 18.9999 13.4475 18.9999 14V27C18.9999 27.5525 18.5524 28 17.9999 28C17.4474 28 16.9999 27.5525 16.9999 27V14ZM11.9999 14C11.9999 13.4475 12.4474 13 12.9999 13C13.5524 13 13.9999 13.4475 13.9999 14V27C13.9999 27.5525 13.5524 28 12.9999 28C12.4474 28 11.9999 27.5525 11.9999 27V14ZM6.99994 14C6.99994 13.4475 7.44744 13 7.99994 13C8.55244 13 8.99994 13.4475 8.99994 14V27C8.99994 27.5525 8.55244 28 7.99994 28C7.44744 28 6.99994 27.5525 6.99994 27V14Z" fill="#FF6058"/>
</svg>
